<svg width="330" height="440" viewBox="0 0 330 440" xmlns="http://www.w3.org/2000/svg" font-family="Pretendard, 'Apple SD Gothic Neo', 'Malgun Gothic', sans-serif">
  <rect width="330" height="440" rx="16" fill="#FBF9F7"/>
  <rect x="18" y="18" width="294" height="404" rx="18" fill="#FFFFFF" stroke="#EEE8E0"/>
  <!-- 상단 바 -->
  <circle cx="44" cy="48" r="10" fill="#0D0D0D"/>
  <path d="M44 42.5 c-1.9 0 -3.2 1.6 -3 3.4 -1.8 -0.2 -3.4 1.1 -3.4 3 0 1.9 1.6 3.2 3.4 3 -0.2 1.8 1.1 3.4 3 3.4 1.9 0 3.2 -1.6 3 -3.4 1.8 0.2 3.4 -1.1 3.4 -3 0 -1.9 -1.6 -3.2 -3.4 -3 0.2 -1.8 -1.1 -3.4 -3 -3.4Z" fill="#fff" opacity=".95" transform="scale(0.92) translate(4,4)"/>
  <text x="62" y="53" font-size="14" font-weight="700" fill="#191F28">ChatGPT</text>
  <!-- 질문 스케일 칩 -->
  <rect x="164" y="76" width="128" height="24" rx="12" fill="#FDEDE7"/>
  <text x="228" y="92" font-size="11" font-weight="700" fill="#C4451F" text-anchor="middle">측정 질문 10개 중 1번</text>
  <!-- 질문 버블 -->
  <rect x="122" y="108" width="170" height="40" rx="14" fill="#F1F1F1"/>
  <text x="207" y="133" font-size="13.5" font-weight="600" fill="#191F28" text-anchor="middle">강남역 맛집 추천해줘</text>
  <!-- 답변: 경쟁 매장 칩 3개 + 스켈레톤 -->
  <circle cx="52" cy="182" r="9" fill="#0D0D0D"/>
  <rect x="70" y="168" width="66" height="28" rx="14" fill="#F1EEE9"/>
  <text x="103" y="186" font-size="12" font-weight="700" fill="#6E675F" text-anchor="middle">ㄱ○식당</text>
  <rect x="142" y="168" width="66" height="28" rx="14" fill="#F1EEE9"/>
  <text x="175" y="186" font-size="12" font-weight="700" fill="#6E675F" text-anchor="middle">ㅅ○포차</text>
  <rect x="214" y="168" width="66" height="28" rx="14" fill="#F1EEE9"/>
  <text x="247" y="186" font-size="12" font-weight="700" fill="#6E675F" text-anchor="middle">ㄷ○김밥</text>
  <rect x="70" y="208" width="222" height="11" rx="5.5" fill="#EDEAE4"/>
  <rect x="70" y="227" width="158" height="11" rx="5.5" fill="#EDEAE4"/>
  <!-- 미노출 강조 -->
  <rect x="63" y="272" width="204" height="64" rx="32" fill="#FCEBEB" stroke="#E7B9B9"/>
  <circle cx="103" cy="304" r="16" fill="#D14040"/>
  <path d="M97 298 l12 12 M109 298 l-12 12" stroke="#fff" stroke-width="3" stroke-linecap="round"/>
  <text x="132" y="312" font-size="22" font-weight="800" fill="#D14040">미노출 0%</text>
  <text x="165" y="366" font-size="14.5" font-weight="700" fill="#4A423A" text-anchor="middle">답변엔 다른 매장만 나왔어요</text>
  <text x="165" y="400" font-size="11.5" fill="#B8B3AB" text-anchor="middle">※ 화면·매장명은 예시입니다</text>
</svg>
